<svg xmlns="http://www.w3.org/2000/svg" xmlns:xlink="http://www.w3.org/1999/xlink" width="192" zoomAndPan="magnify" viewBox="35.24 43.27 73.25 54.73" height="192" preserveAspectRatio="xMidYMid meet" version="1.0"><defs><clipPath id="ddebb90f9a"><path d="M 39.238281 47.265625 L 82 47.265625 L 82 94 L 39.238281 94 Z M 39.238281 47.265625 " clip-rule="nonzero"/></clipPath><clipPath id="d557e5ffab"><path d="M 78 61 L 104.488281 61 L 104.488281 89 L 78 89 Z M 78 61 " clip-rule="nonzero"/></clipPath></defs><g clip-path="url(#ddebb90f9a)"><path fill="#fffbca" d="M 71.875 76.257812 C 73.757812 77.980469 75.636719 79.703125 77.515625 81.425781 C 77.421875 81.539062 77.324219 81.652344 77.230469 81.769531 C 75.40625 80.855469 73.714844 79.6875 72.21875 78.316406 C 69.296875 75.640625 67.230469 72.316406 65.445312 68.808594 C 64.804688 67.550781 65.042969 66.167969 65.011719 64.878906 C 64.660156 64.769531 64.515625 64.917969 64.40625 65.070312 C 62.902344 67.21875 61.652344 69.5 60.824219 71.996094 C 60.109375 74.160156 60.335938 76.214844 61.429688 78.226562 C 62.3125 79.847656 63.378906 81.308594 64.753906 82.542969 C 69.4375 86.742188 74.363281 90.574219 80.285156 92.925781 C 80.582031 93.042969 80.84375 93.242188 81.023438 93.535156 C 71.929688 91.171875 65.175781 85.652344 59.875 77.820312 C 58.304688 79.078125 56.246094 79.726562 54.261719 80.515625 C 51.53125 81.597656 48.746094 82.527344 45.742188 82.402344 C 44.496094 82.347656 43.308594 82.074219 42.082031 81.535156 C 42.371094 82.910156 43.195312 83.941406 44.046875 84.90625 C 45.675781 86.75 47.628906 87.871094 50.25 87.433594 C 53.609375 86.878906 56.894531 86.105469 60.039062 84.78125 C 60.664062 84.519531 61.25 84.078125 62.179688 84.085938 C 61.253906 84.886719 60.371094 85.425781 59.429688 85.839844 C 56.363281 87.179688 53.128906 87.972656 49.847656 88.511719 C 47.773438 88.851562 45.917969 87.964844 44.527344 86.527344 C 41.335938 83.230469 39.257812 79.390625 39.671875 74.605469 C 39.871094 72.308594 40.609375 70.136719 41.59375 68.066406 C 46 58.78125 53.125 52.410156 62.644531 48.695312 C 65.734375 47.488281 68.925781 47.265625 71.882812 49.078125 C 74.40625 50.625 76.472656 52.734375 78.019531 55.269531 C 78.8125 56.574219 79.03125 58.097656 78.757812 59.625 C 78.609375 60.472656 78.769531 61.136719 79.460938 61.652344 L 79.503906 61.613281 C 78.621094 61.285156 78.378906 61.839844 78.179688 62.535156 C 77.214844 65.933594 75.75 69.144531 74.277344 72.34375 C 73.636719 73.734375 73.222656 75.304688 71.859375 76.257812 C 73.628906 73.195312 74.789062 69.867188 76.15625 66.636719 C 77.105469 64.394531 77.660156 62.066406 77.9375 59.660156 C 78.125 58.035156 77.792969 56.523438 76.835938 55.210938 C 75.613281 53.539062 74.058594 52.191406 72.25 50.667969 C 72.714844 52.457031 72.746094 53.964844 72.488281 55.441406 C 71.824219 59.242188 70.621094 62.886719 69.058594 66.410156 C 68.636719 67.367188 68.0625 68.234375 67.089844 68.746094 C 67.597656 67.769531 68.117188 66.796875 68.609375 65.8125 C 70.234375 62.566406 70.980469 59.078125 71.507812 55.523438 C 71.644531 54.609375 71.273438 54.386719 70.449219 54.394531 C 69.3125 54.402344 68.273438 54.738281 67.230469 55.132812 C 62.484375 56.921875 58.664062 60.074219 55.050781 63.492188 C 52.25 66.140625 49.695312 69.019531 47.71875 72.367188 C 46.425781 74.558594 45.773438 76.910156 45.808594 79.449219 C 45.832031 81.273438 46.074219 81.507812 47.84375 81.390625 C 51.824219 81.125 55.496094 79.910156 58.882812 77.804688 C 59.613281 77.351562 60.078125 76.953125 59.804688 75.953125 C 59.542969 75.015625 59.695312 74.015625 59.90625 73.046875 C 60.714844 69.320312 62.542969 66.117188 65.027344 63.289062 C 66.207031 61.945312 67.519531 61.441406 69.078125 61.371094 C 68.652344 61.664062 68.152344 61.96875 67.695312 62.328125 C 65.785156 63.835938 65.339844 66.601562 66.667969 68.636719 C 66.789062 68.824219 66.984375 68.804688 67.15625 68.671875 C 66.890625 70.109375 67.945312 70.933594 68.671875 71.910156 L 68.667969 71.914062 C 69.398438 73.613281 70.824219 74.796875 71.875 76.257812 Z M 71.449219 53.796875 C 71.691406 53.242188 71.550781 52.859375 71.488281 52.480469 C 71.003906 49.589844 69.621094 48.445312 66.660156 48.515625 C 65.085938 48.554688 63.566406 48.898438 62.082031 49.441406 C 56.066406 51.644531 51.414062 55.675781 47.40625 60.503906 C 44.464844 64.046875 42.1875 68 41.011719 72.503906 C 40.601562 74.082031 40.296875 75.6875 40.601562 77.339844 C 41.015625 79.550781 42.980469 81.039062 45.359375 80.929688 C 45.054688 77.550781 45.332031 75.503906 46.570312 72.996094 C 47.085938 71.945312 47.675781 70.917969 48.359375 69.964844 C 52.535156 64.144531 57.957031 59.675781 63.972656 55.914062 C 66.183594 54.527344 68.679688 53.695312 71.449219 53.796875 Z M 71.449219 53.796875 " fill-opacity="1" fill-rule="nonzero"/></g><g clip-path="url(#d557e5ffab)"><path fill="#fffbca" d="M 79.460938 61.652344 C 80.140625 61.378906 80.746094 61.6875 81.339844 61.933594 C 90.082031 65.515625 97.253906 71.0625 102.574219 78.921875 C 103.34375 80.058594 103.957031 81.28125 104.355469 82.609375 C 104.726562 83.851562 104.5625 85.054688 104.152344 86.238281 C 103.792969 87.289062 103.113281 87.914062 101.96875 88.210938 C 99.496094 88.851562 97.046875 88.652344 94.589844 88.265625 C 89.535156 87.46875 84.617188 86.242188 80.148438 83.628906 C 79.675781 83.351562 79.046875 83.253906 78.796875 82.429688 C 79.992188 82.707031 80.941406 83.226562 81.902344 83.710938 C 87.335938 86.464844 93.191406 87.285156 99.179688 87.335938 C 103.933594 87.375 104.378906 84.234375 102.910156 81.253906 C 101.332031 78.046875 99.089844 75.339844 96.570312 72.855469 C 92.207031 68.546875 87.183594 65.183594 81.613281 62.636719 C 80.902344 62.308594 80.214844 61.949219 79.511719 61.609375 C 79.503906 61.609375 79.460938 61.652344 79.460938 61.652344 Z M 79.460938 61.652344 " fill-opacity="1" fill-rule="nonzero"/></g><path fill="#fffbca" d="M 99.90625 86.515625 C 99.199219 86.296875 99.152344 85.695312 98.988281 85.25 C 97.53125 81.332031 94.878906 78.332031 91.746094 75.695312 C 87.925781 72.488281 83.804688 69.777344 79.09375 68.042969 C 78.722656 67.910156 78.136719 67.941406 78.050781 67.195312 C 79.742188 67.207031 81.265625 67.746094 82.695312 68.460938 C 88.308594 71.269531 93.226562 74.96875 97.074219 79.976562 C 98.539062 81.890625 99.792969 83.933594 99.90625 86.515625 Z M 99.90625 86.515625 " fill-opacity="1" fill-rule="nonzero"/><path fill="#fffbca" d="M 68.085938 78.699219 C 73.398438 83.945312 79.914062 87.023438 86.914062 89.488281 C 81.515625 89.609375 71.222656 83.769531 68.085938 78.699219 Z M 68.085938 78.699219 " fill-opacity="1" fill-rule="nonzero"/><path fill="#fffbca" d="M 71.667969 85.285156 C 74.679688 87.125 77.742188 88.8125 81.082031 89.941406 C 84.375 91.054688 87.785156 91.535156 91.304688 91.820312 C 84.019531 93.105469 75.21875 89.394531 71.667969 85.285156 Z M 71.667969 85.285156 " fill-opacity="1" fill-rule="nonzero"/><path fill="#fffbca" d="M 86.3125 94.75 C 87.046875 94.433594 87.804688 94.527344 88.558594 94.609375 C 89.988281 94.761719 91.425781 94.761719 92.851562 94.652344 C 96.320312 94.386719 99.253906 93.027344 101.457031 90.257812 C 101.738281 89.90625 102.042969 89.578125 102.492188 89.0625 C 99.976562 95.375 93.074219 96.730469 86.3125 94.75 Z M 86.3125 94.75 " fill-opacity="1" fill-rule="nonzero"/><path fill="#fffbca" d="M 48.359375 85.890625 C 50.90625 85.34375 53.453125 84.800781 56 84.253906 C 53.675781 85.820312 51.164062 86.523438 48.359375 85.890625 Z M 48.359375 85.890625 " fill-opacity="1" fill-rule="nonzero"/><path fill="#fffbca" d="M 46.929688 84.1875 C 48.9375 83.878906 50.972656 83.84375 52.988281 83.578125 C 51.007812 84.242188 49.019531 84.8125 46.929688 84.1875 Z M 46.929688 84.1875 " fill-opacity="1" fill-rule="nonzero"/><path fill="#fffbca" d="M 48.390625 67.097656 C 49.097656 66.199219 48.269531 65.050781 48.878906 64.058594 C 49.582031 64.136719 49.171875 65.078125 49.792969 65.140625 C 51.007812 63.878906 51.015625 63.871094 49.769531 62.613281 C 49.402344 62.242188 49.3125 61.832031 49.472656 61.371094 C 49.660156 60.828125 50.089844 60.6875 50.566406 60.9375 C 51.292969 61.324219 51.519531 60.828125 51.675781 60.324219 C 51.804688 59.898438 51.78125 59.425781 51.855469 58.976562 C 51.902344 58.699219 52.089844 58.480469 52.378906 58.535156 C 52.535156 58.566406 52.71875 58.75 52.777344 58.910156 C 52.941406 59.332031 53.011719 59.792969 53.179688 60.210938 C 53.347656 60.644531 53.613281 61.078125 54.160156 60.992188 C 54.78125 60.902344 54.980469 60.402344 54.996094 59.84375 C 55.019531 59.1875 54.933594 58.542969 54.746094 57.910156 C 54.652344 57.605469 54.542969 57.261719 54.59375 56.960938 C 54.683594 56.40625 54.953125 55.847656 55.613281 56.394531 C 56.4375 57.078125 56.765625 56.65625 56.929688 55.890625 C 57.050781 55.3125 57.101562 54.714844 57.414062 54.210938 C 57.726562 53.714844 58.128906 53.167969 58.820312 53.535156 C 59.398438 53.84375 59.230469 54.414062 59.070312 54.929688 C 58.917969 55.40625 58.4375 55.742188 58.46875 56.4375 C 59.601562 56.488281 60.167969 55.613281 60.882812 55.035156 C 61.628906 54.433594 62.023438 53.457031 63.085938 52.9375 C 63.054688 54.59375 61.984375 55.515625 61.113281 56.496094 C 60.179688 57.542969 58.996094 58.011719 57.597656 57.332031 C 56.917969 57 56.539062 57.675781 56 57.8125 C 55.023438 58.054688 55.589844 58.703125 55.628906 59.214844 C 55.644531 59.410156 55.671875 59.601562 55.683594 59.796875 C 55.730469 60.652344 55.425781 61.339844 54.664062 61.761719 C 53.738281 62.277344 53.050781 61.734375 52.371094 61.175781 C 51.625 61.828125 51.371094 62.628906 51.300781 63.59375 C 51.207031 64.90625 51.042969 66.25 49.210938 66.335938 C 48.925781 66.351562 48.664062 66.824219 48.390625 67.085938 C 48.386719 67.089844 48.390625 67.097656 48.390625 67.097656 Z M 48.390625 67.097656 " fill-opacity="1" fill-rule="nonzero"/><path fill="#fffbca" d="M 48.386719 67.089844 C 48.429688 67.210938 48.5 67.332031 48.511719 67.457031 C 48.617188 68.613281 48.136719 69.640625 47.488281 69.667969 C 47.023438 69.691406 46.082031 68.648438 46.007812 67.863281 C 45.910156 66.769531 45.28125 65.765625 45.507812 64.625 C 45.589844 64.222656 45.71875 63.828125 46.171875 63.796875 C 46.65625 63.769531 46.835938 64.199219 46.871094 64.578125 C 46.929688 65.285156 46.898438 66 46.90625 66.710938 C 46.90625 66.839844 46.890625 66.972656 46.914062 67.097656 C 47.007812 67.660156 46.972656 68.527344 47.582031 68.566406 C 48.433594 68.621094 48.390625 67.761719 48.394531 67.101562 C 48.390625 67.097656 48.386719 67.089844 48.386719 67.089844 Z M 48.386719 67.089844 " fill-opacity="1" fill-rule="nonzero"/><path fill="#fffbca" d="M 68.671875 71.90625 C 69.644531 71.945312 69.742188 71.058594 70.050781 70.492188 C 72.371094 66.269531 74.582031 61.996094 75.019531 57.046875 C 75.34375 58 75.304688 58.945312 75.183594 59.886719 C 74.675781 63.921875 73.144531 67.542969 70.734375 70.808594 C 70.214844 71.507812 69.683594 72.15625 68.667969 71.910156 C 68.664062 71.914062 68.671875 71.90625 68.671875 71.90625 Z M 68.671875 71.90625 " fill-opacity="1" fill-rule="nonzero"/></svg>